<?xml version="1.0" encoding="UTF-8" standalone="no"?>
<svg
   xmlns:dc="http://purl.org/dc/elements/1.1/"
   xmlns:cc="http://creativecommons.org/ns#"
   xmlns:rdf="http://www.w3.org/1999/02/22-rdf-syntax-ns#"
   xmlns:svg="http://www.w3.org/2000/svg"
   xmlns="http://www.w3.org/2000/svg"
   xmlns:sodipodi="http://sodipodi.sourceforge.net/DTD/sodipodi-0.dtd"
   xmlns:inkscape="http://www.inkscape.org/namespaces/inkscape"
   version="1.1"
   id="Layer_1"
   x="0px"
   y="0px"
   viewBox="0 0 310 310"
   style="enable-background:new 0 0 310 310;"
   xml:space="preserve"
   sodipodi:docname="youtube-svgrepo-com.svg"
   inkscape:version="1.0.2 (e86c870, 2021-01-15)"><metadata
   id="metadata110"><rdf:RDF><cc:Work
       rdf:about=""><dc:format>image/svg+xml</dc:format><dc:type
         rdf:resource="http://purl.org/dc/dcmitype/StillImage" /></cc:Work></rdf:RDF></metadata><defs
   id="defs108" /><sodipodi:namedview
   pagecolor="#ffffff"
   bordercolor="#666666"
   borderopacity="1"
   objecttolerance="10"
   gridtolerance="10"
   guidetolerance="10"
   inkscape:pageopacity="0"
   inkscape:pageshadow="2"
   inkscape:window-width="1920"
   inkscape:window-height="1013"
   id="namedview106"
   showgrid="false"
   inkscape:zoom="2.716129"
   inkscape:cx="155"
   inkscape:cy="155"
   inkscape:window-x="-9"
   inkscape:window-y="-9"
   inkscape:window-maximized="1"
   inkscape:current-layer="Layer_1" />
<g
   id="XMLID_822_"
   style="fill:#ffffff">
	<path
   id="XMLID_823_"
   d="M297.917,64.645c-11.19-13.302-31.85-18.728-71.306-18.728H83.386c-40.359,0-61.369,5.776-72.517,19.938   C0,79.663,0,100.008,0,128.166v53.669c0,54.551,12.896,82.248,83.386,82.248h143.226c34.216,0,53.176-4.788,65.442-16.527   C304.633,235.518,310,215.863,310,181.835v-53.669C310,98.471,309.159,78.006,297.917,64.645z M199.021,162.41l-65.038,33.991   c-1.454,0.76-3.044,1.137-4.632,1.137c-1.798,0-3.592-0.484-5.181-1.446c-2.992-1.813-4.819-5.056-4.819-8.554v-67.764   c0-3.492,1.822-6.732,4.808-8.546c2.987-1.814,6.702-1.938,9.801-0.328l65.038,33.772c3.309,1.718,5.387,5.134,5.392,8.861   C204.394,157.263,202.325,160.684,199.021,162.41z"
   style="fill:#ffffff" />
</g>
<g
   id="g75">
</g>
<g
   id="g77">
</g>
<g
   id="g79">
</g>
<g
   id="g81">
</g>
<g
   id="g83">
</g>
<g
   id="g85">
</g>
<g
   id="g87">
</g>
<g
   id="g89">
</g>
<g
   id="g91">
</g>
<g
   id="g93">
</g>
<g
   id="g95">
</g>
<g
   id="g97">
</g>
<g
   id="g99">
</g>
<g
   id="g101">
</g>
<g
   id="g103">
</g>
</svg>
